<svg xmlns="http://www.w3.org/2000/svg" viewBox="0 0 30 30"><defs><style>.cls-1{fill:#1f1f1f;}.cls-1,.cls-3{fill-rule:evenodd;}.cls-2,.cls-3{fill:#ddd8ca;}</style></defs><g id="Layer_2" data-name="Layer 2"><g id="Layer_1-2" data-name="Layer 1"><path class="cls-1" d="M29.41,26a6.35,6.35,0,0,1-1.92,2.52,6.42,6.42,0,0,1-2.11,1.1,13.33,13.33,0,0,1-3.63.38H8.25a13.33,13.33,0,0,1-3.63-.38,6.42,6.42,0,0,1-2.11-1.1A6.35,6.35,0,0,1,.59,26,11.89,11.89,0,0,1,0,21.75H0V8.25H0A11.89,11.89,0,0,1,.59,4,6.35,6.35,0,0,1,2.51,1.48,6.42,6.42,0,0,1,4.62.38,13.33,13.33,0,0,1,8.25,0h13.5a13.33,13.33,0,0,1,3.63.38,6.42,6.42,0,0,1,2.11,1.1A6.35,6.35,0,0,1,29.41,4,11.89,11.89,0,0,1,30,8.25v13.5A11.89,11.89,0,0,1,29.41,26Z"/><path class="cls-2" d="M22.32,21.46c-8.26,3.93-13.38.65-16.66-1.35-.2-.13-.55,0-.25.37A13.15,13.15,0,0,0,14.76,25a10.86,10.86,0,0,0,7.81-3c.34-.44.1-.68-.25-.54Zm2.32-1.28c-.22-.29-1.35-.34-2.06-.25s-1.77.52-1.68.78c.05.09.14.05.63,0s1.86-.22,2.14.15-.43,2.16-.56,2.45,0,.37.28.17a3.72,3.72,0,0,0,1-1.39,3.3,3.3,0,0,0,.29-1.92Z"/><path class="cls-3" d="M16.77,13.45a5.07,5.07,0,0,1-.5,2.8,2.13,2.13,0,0,1-1.83,1.21c-1,0-1.6-.78-1.6-1.92,0-2.26,2-2.67,3.93-2.67Zm2.67,6.45a.58.58,0,0,1-.63.06,6.7,6.7,0,0,1-1.52-1.76,5.22,5.22,0,0,1-4.36,1.92A3.76,3.76,0,0,1,9,16a4.51,4.51,0,0,1,2.82-4.33,18.72,18.72,0,0,1,5-.92v-.34a3.41,3.41,0,0,0-.32-1.92A1.78,1.78,0,0,0,15,7.81a2,2,0,0,0-2.12,1.58.56.56,0,0,1-.46.49L9.81,9.6a.46.46,0,0,1-.39-.55C10,5.94,12.82,5,15.33,5a6,6,0,0,1,4,1.32c1.29,1.2,1.16,2.8,1.16,4.55V15a3.63,3.63,0,0,0,1,2.45.5.5,0,0,1,0,.71c-.54.45-1.5,1.29-2,1.75h0"/><path class="cls-2" d="M22.32,21.46c-8.26,3.93-13.38.65-16.66-1.35-.2-.13-.55,0-.25.37A13.15,13.15,0,0,0,14.76,25a10.86,10.86,0,0,0,7.81-3c.34-.44.1-.68-.25-.54Zm2.32-1.28c-.22-.29-1.35-.34-2.06-.25s-1.77.52-1.68.78c.05.09.14.05.63,0s1.86-.22,2.14.15-.43,2.16-.56,2.45,0,.37.28.17a3.72,3.72,0,0,0,1-1.39,3.3,3.3,0,0,0,.29-1.92Z"/><path class="cls-3" d="M16.77,13.45a5.07,5.07,0,0,1-.5,2.8,2.13,2.13,0,0,1-1.83,1.21c-1,0-1.6-.78-1.6-1.92,0-2.26,2-2.67,3.93-2.67Zm2.67,6.45a.58.58,0,0,1-.63.06,6.7,6.7,0,0,1-1.52-1.76,5.22,5.22,0,0,1-4.36,1.92A3.76,3.76,0,0,1,9,16a4.51,4.51,0,0,1,2.82-4.33,18.72,18.72,0,0,1,5-.92v-.34a3.41,3.41,0,0,0-.32-1.92A1.78,1.78,0,0,0,15,7.81a2,2,0,0,0-2.12,1.58.56.56,0,0,1-.46.49L9.81,9.6a.46.46,0,0,1-.39-.55C10,5.94,12.82,5,15.33,5a6,6,0,0,1,4,1.32c1.29,1.2,1.16,2.8,1.16,4.55V15a3.63,3.63,0,0,0,1,2.45.5.5,0,0,1,0,.71c-.54.45-1.5,1.29-2,1.75h0"/></g></g></svg>