<svg xmlns="http://www.w3.org/2000/svg" viewBox="0 0 180 43.67"><defs><style>.cls-1{fill:#a6a6a6;}.cls-2,.cls-3{fill:#fff;}.cls-3{fill-rule:evenodd;}</style></defs><g id="Layer_2" data-name="Layer 2"><g id="Layer_1-2" data-name="Layer 1"><g id="Amazon"><g id="amazon-2" data-name="amazon"><path class="cls-1" d="M169.6,0H9.22l-1,0A13.59,13.59,0,0,0,6,.21,7.51,7.51,0,0,0,4,.89,7.06,7.06,0,0,0,2.18,2.18,7,7,0,0,0,.21,6,14.47,14.47,0,0,0,0,8.21c0,.34,0,.68,0,1V34.46c0,.34,0,.66,0,1a14.49,14.49,0,0,0,.19,2.19,7.25,7.25,0,0,0,.68,2.08,7,7,0,0,0,1.29,1.76A6.82,6.82,0,0,0,4,42.78,7.21,7.21,0,0,0,6,43.47a14.83,14.83,0,0,0,2.19.19H171.79a14.47,14.47,0,0,0,2.18-.19,7.38,7.38,0,0,0,2.08-.69,6.82,6.82,0,0,0,1.77-1.29,7,7,0,0,0,1.29-1.76,7.23,7.23,0,0,0,.67-2.08,14.5,14.5,0,0,0,.21-2.19v-1c0-.4,0-.79,0-1.2V10.41c0-.4,0-.79,0-1.19v-1A14.5,14.5,0,0,0,179.78,6,7.23,7.23,0,0,0,179.11,4a7.24,7.24,0,0,0-1.29-1.77A7.06,7.06,0,0,0,176.05.89,7.69,7.69,0,0,0,174,.21,13.28,13.28,0,0,0,171.79,0l-1,0Z"/><path d="M9.22,42.72h-1a13.87,13.87,0,0,1-2-.18,6.53,6.53,0,0,1-1.81-.6A6.2,6.2,0,0,1,1.74,39.3a6.63,6.63,0,0,1-.59-1.81A13.45,13.45,0,0,1,1,35.44c0-.23,0-1,0-1V9.22s0-.75,0-1a13.22,13.22,0,0,1,.18-2,6.59,6.59,0,0,1,.59-1.82A6,6,0,0,1,2.85,2.86,6.21,6.21,0,0,1,4.38,1.74a6.31,6.31,0,0,1,1.81-.59A13.34,13.34,0,0,1,8.24,1H171.77a13.1,13.1,0,0,1,2,.18,6.18,6.18,0,0,1,1.82.6,5.91,5.91,0,0,1,1.52,1.1,6.15,6.15,0,0,1,1.12,1.54,6.67,6.67,0,0,1,.59,1.8A14.58,14.58,0,0,1,179,8.25c0,.31,0,.64,0,1s0,.8,0,1.19V33.26c0,.4,0,.79,0,1.18s0,.68,0,1a14.29,14.29,0,0,1-.18,2,6.59,6.59,0,0,1-.59,1.82,6,6,0,0,1-1.11,1.51,5.8,5.8,0,0,1-1.53,1.12,6.28,6.28,0,0,1-1.82.6,13.64,13.64,0,0,1-2,.18H9.22Z"/></g><path class="cls-2" d="M40.69,14v-.92H37.76V7.68H36.64V14Zm1.86,0V9.37H41.47V14Zm-.06-5.61A.58.58,0,0,0,42.66,8a.58.58,0,0,0-.17-.46A.68.68,0,0,0,42,7.35a.64.64,0,0,0-.47.16.68.68,0,0,0,0,.92.64.64,0,0,0,.47.16.68.68,0,0,0,.48-.16Zm3.33,4.78a1.26,1.26,0,0,1-.67.14,5.21,5.21,0,0,1-1.57-.29v.77a2.84,2.84,0,0,0,.73.25,3.86,3.86,0,0,0,.84.09,2.18,2.18,0,0,0,1.38-.39A1.33,1.33,0,0,0,47,12.69a1.16,1.16,0,0,0-.24-.75,1.93,1.93,0,0,0-.8-.5l-.71-.28a1.66,1.66,0,0,1-.51-.27.42.42,0,0,1-.14-.32.43.43,0,0,1,.2-.39,1.12,1.12,0,0,1,.62-.13,4.47,4.47,0,0,1,1.32.23V9.52a3.25,3.25,0,0,0-1.38-.29,2,2,0,0,0-1.27.37,1.22,1.22,0,0,0-.48,1,1.34,1.34,0,0,0,1,1.29l.76.29a1.45,1.45,0,0,1,.48.25.44.44,0,0,1,.13.33.5.5,0,0,1-.21.44Zm4.8,0a3.06,3.06,0,0,1-.7.08.76.76,0,0,1-.51-.14.54.54,0,0,1-.16-.44V10.19h1.34V9.37H49.25V8.08h-.88l-.16,1.31-.83.12v.68h.79v2.53a1.39,1.39,0,0,0,.35,1,1.46,1.46,0,0,0,1.07.34,3.13,3.13,0,0,0,1-.17v-.76ZM55.25,12a4.31,4.31,0,0,0,.08-.85,1.91,1.91,0,0,0-.48-1.39,1.83,1.83,0,0,0-1.38-.49,2.06,2.06,0,0,0-1.63.66,2.67,2.67,0,0,0-.58,1.84,2.53,2.53,0,0,0,.59,1.82,2.3,2.3,0,0,0,1.76.62,4.24,4.24,0,0,0,.88-.09,3.19,3.19,0,0,0,.74-.26v-.76a4.48,4.48,0,0,1-1.42.25A1.6,1.6,0,0,1,52.73,13a1.41,1.41,0,0,1-.37-1Zm-1.11-1.65a1.39,1.39,0,0,1,.23.85v.08h-2a1.44,1.44,0,0,1,.34-.89,1,1,0,0,1,.76-.33.81.81,0,0,1,.68.29ZM60.56,14V10.6A1.23,1.23,0,0,0,59.2,9.23a2.89,2.89,0,0,0-1.8.65l-.11-.51h-.9V14h1.08V10.48a2.36,2.36,0,0,1,1.24-.4.76.76,0,0,1,.59.21,1,1,0,0,1,.18.65V14Zm7.38-.52a2.61,2.61,0,0,0,.6-1.82,2.58,2.58,0,0,0-.6-1.82,2.44,2.44,0,0,0-3.32,0A2.58,2.58,0,0,0,64,11.7a2.61,2.61,0,0,0,.6,1.82,2.44,2.44,0,0,0,3.32,0ZM65.12,11.7c0-1.08.39-1.62,1.16-1.62s1.16.54,1.16,1.62-.39,1.62-1.16,1.62-1.16-.54-1.16-1.62ZM73.8,14V10.6a1.42,1.42,0,0,0-.35-1,1.39,1.39,0,0,0-1-.35,2.93,2.93,0,0,0-1.8.65l-.11-.51h-.9V14h1.09V10.48a2.35,2.35,0,0,1,1.23-.4.74.74,0,0,1,.59.21,1,1,0,0,1,.19.65V14Z"/><path class="cls-3" d="M68.73,21v-1.3a.33.33,0,0,1,.33-.33h5.78a.31.31,0,0,1,.33.32v1.12a1.76,1.76,0,0,1-.43.82l-3,4.31a6.33,6.33,0,0,1,3.29.71.6.6,0,0,1,.31.51V28.5c0,.2-.21.42-.43.3a6.6,6.6,0,0,0-6.1,0c-.21.11-.42-.11-.42-.3V27.19a1.59,1.59,0,0,1,.22-.89l3.47-5h-3a.33.33,0,0,1-.34-.32ZM47.65,29.07H45.89a.32.32,0,0,1-.31-.29v-9.1a.34.34,0,0,1,.34-.33h1.63a.33.33,0,0,1,.32.31v1.18h0a2.41,2.41,0,0,1,4.59,0A2.6,2.6,0,0,1,57,20.15,4.87,4.87,0,0,1,57.41,23v5.74a.33.33,0,0,1-.34.32H55.31a.33.33,0,0,1-.31-.32V23.93a12.13,12.13,0,0,0,0-1.71.92.92,0,0,0-1-.78,1.16,1.16,0,0,0-1,.74,5.61,5.61,0,0,0-.16,1.75v4.82a.33.33,0,0,1-.34.32H50.6a.33.33,0,0,1-.31-.32V23.93c0-1,.16-2.51-1.09-2.51S48,22.87,48,23.93v4.82a.33.33,0,0,1-.34.32Zm32.5-9.91c2.61,0,4,2.26,4,5.13s-1.56,5-4,5-4-2.26-4-5.08,1.42-5,4-5Zm0,1.86c-1.3,0-1.38,1.78-1.38,2.89s0,3.48,1.36,3.48,1.43-1.91,1.43-3.08a8.41,8.41,0,0,0-.26-2.41A1.1,1.1,0,0,0,80.17,21Zm7.39,8.05H85.81a.33.33,0,0,1-.32-.32v-9.1a.33.33,0,0,1,.33-.3h1.64a.33.33,0,0,1,.31.26V21h0a2.39,2.39,0,0,1,2.4-1.84,2.3,2.3,0,0,1,2,1.07,5.82,5.82,0,0,1,.46,2.83v5.73a.33.33,0,0,1-.34.28H90.61a.33.33,0,0,1-.31-.28V23.85c0-1,.11-2.45-1.1-2.45a1.16,1.16,0,0,0-1,.73,4,4,0,0,0-.28,1.72v4.9a.33.33,0,0,1-.34.32Zm-21.66,0a.36.36,0,0,1-.42,0,4.13,4.13,0,0,1-1-1.18,3.48,3.48,0,0,1-2.9,1.29,2.51,2.51,0,0,1-2.64-2.76,3,3,0,0,1,1.88-2.9,12,12,0,0,1,3.31-.61V22.7a2.27,2.27,0,0,0-.22-1.29,1.17,1.17,0,0,0-1-.46A1.35,1.35,0,0,0,61.51,22a.36.36,0,0,1-.3.32l-1.71-.18a.32.32,0,0,1-.26-.38c.39-2.08,2.26-2.71,3.93-2.71a4,4,0,0,1,2.65.88c.86.81.77,1.88.77,3.05v2.77a2.44,2.44,0,0,0,.67,1.64.34.34,0,0,1,0,.47c-.36.3-1,.86-1.35,1.18Zm-1.77-4.32v-.38c-1.28,0-2.62.27-2.62,1.78,0,.77.4,1.29,1.07,1.29a1.44,1.44,0,0,0,1.22-.81,3.55,3.55,0,0,0,.33-1.88ZM42.85,29.05a.36.36,0,0,1-.42,0,4.36,4.36,0,0,1-1-1.18,3.47,3.47,0,0,1-2.9,1.29,2.5,2.5,0,0,1-2.63-2.76,3,3,0,0,1,1.88-2.9,11.88,11.88,0,0,1,3.3-.61V22.7a2.27,2.27,0,0,0-.21-1.29,1.2,1.2,0,0,0-1-.46A1.34,1.34,0,0,0,38.46,22a.37.37,0,0,1-.31.32l-1.7-.18a.31.31,0,0,1-.26-.38c.39-2.08,2.25-2.71,3.93-2.71a4,4,0,0,1,2.65.88c.85.81.77,1.88.77,3.05v2.77a2.44,2.44,0,0,0,.66,1.64.33.33,0,0,1,0,.47c-.36.3-1,.86-1.35,1.18Zm-1.78-4.32v-.38c-1.27,0-2.61.27-2.61,1.78,0,.77.39,1.29,1.07,1.29a1.42,1.42,0,0,0,1.21-.81,3.45,3.45,0,0,0,.33-1.88Zm30.05,7.84a21.53,21.53,0,0,1-12.21,3.76A22,22,0,0,1,44,30.59c-.31-.28,0-.66.34-.44a29.86,29.86,0,0,0,14.92,4,29.51,29.51,0,0,0,11.38-2.35c.56-.24,1,.37.48.78ZM72.5,31c-.43-.55-2.79-.26-3.86-.13-.32,0-.37-.25-.08-.45,1.89-1.34,5-1,5.35-.51S73.81,33.48,72,35c-.27.23-.53.1-.41-.2.4-1,1.29-3.25.87-3.79Zm56-3.47a1.21,1.21,0,0,0,.49-1.05,1,1,0,0,0-.3-.75,3.09,3.09,0,0,0-1.07-.57L126,24.53a2.75,2.75,0,0,1-2.11-2.68,2.47,2.47,0,0,1,1-2,4,4,0,0,1,2.51-.76,6.85,6.85,0,0,1,2.41.44.69.69,0,0,1,.33.2.63.63,0,0,1,.09.37v.52c0,.23-.08.35-.25.35a2,2,0,0,1-.43-.1,7.18,7.18,0,0,0-2.05-.31c-1.22,0-1.83.42-1.83,1.25a1,1,0,0,0,.31.78,4,4,0,0,0,1.19.63l1.49.58a3.9,3.9,0,0,1,1.61,1,2.37,2.37,0,0,1,.49,1.56,2.6,2.6,0,0,1-1,2.16,4.16,4.16,0,0,1-2.68.81,7.31,7.31,0,0,1-2.87-.54.7.7,0,0,1-.31-.21.6.6,0,0,1-.09-.36v-.54c0-.23.08-.34.23-.34a1.64,1.64,0,0,1,.48.11,8.36,8.36,0,0,0,2.6.4,2.33,2.33,0,0,0,1.41-.36Zm-8.4-7.77a.33.33,0,0,1,.38-.38h1.12a.33.33,0,0,1,.38.38v8.94a.34.34,0,0,1-.38.38h-.82a.48.48,0,0,1-.29-.08.44.44,0,0,1-.15-.29l-.13-.66a6,6,0,0,1-3.63,1.32,2.74,2.74,0,0,1-2.07-.77,3,3,0,0,1-.72-2.16V19.75a.33.33,0,0,1,.38-.38h1.12a.33.33,0,0,1,.38.38v6.07a2.44,2.44,0,0,0,.4,1.52,1.57,1.57,0,0,0,1.27.48,5,5,0,0,0,2.76-.91V19.75Zm-10.18,9.32a.33.33,0,0,1-.38-.38v-6.2a2.3,2.3,0,0,0-.36-1.42,1.35,1.35,0,0,0-1.14-.46,5.31,5.31,0,0,0-2.79.86,2.64,2.64,0,0,1,0,.29v6.93a.34.34,0,0,1-.38.38h-1.12a.33.33,0,0,1-.38-.38v-6.2a2.23,2.23,0,0,0-.37-1.42,1.34,1.34,0,0,0-1.13-.46,5.13,5.13,0,0,0-2.78.84v7.24a.33.33,0,0,1-.38.38H97.61a.34.34,0,0,1-.38-.38V19.75a.33.33,0,0,1,.38-.38h.84a.48.48,0,0,1,.29.07.47.47,0,0,1,.15.29l.11.61a6.25,6.25,0,0,1,3.55-1.26,2.37,2.37,0,0,1,2.39,1.36,6.39,6.39,0,0,1,3.76-1.36,2.6,2.6,0,0,1,2,.75,3,3,0,0,1,.71,2.12v6.74a.34.34,0,0,1-.38.38Zm29-7.55a4,4,0,0,0-.7,2.59v.25a3.87,3.87,0,0,0,.71,2.56,2.86,2.86,0,0,0,2.25.81,6,6,0,0,0,1.71-.27,1.32,1.32,0,0,1,.29-.06q.24,0,.24.39v.51a.71.71,0,0,1-.07.37.74.74,0,0,1-.31.21,5.55,5.55,0,0,1-2.16.4A4.43,4.43,0,0,1,137.44,28a5.35,5.35,0,0,1-1.18-3.74,5.32,5.32,0,0,1,1.22-3.76A4.47,4.47,0,0,1,141,19.16a5.84,5.84,0,0,1,2,.36.54.54,0,0,1,.29.19.64.64,0,0,1,.09.38v.52c0,.26-.08.38-.25.38l-.3,0a5.35,5.35,0,0,0-1.58-.23,2.91,2.91,0,0,0-2.3.81Zm-5-2.15a.33.33,0,0,1,.38.38v8.94a.34.34,0,0,1-.38.38h-1.12a.34.34,0,0,1-.38-.38V19.75a.33.33,0,0,1,.38-.38Zm.31-3.71a1.35,1.35,0,1,1-.86-.31,1.14,1.14,0,0,1,.86.31Z"/></g></g></g></svg>