<svg xmlns="http://www.w3.org/2000/svg" xmlns:xlink="http://www.w3.org/1999/xlink" viewBox="0 0 180 43.67"><defs><style>.cls-1{fill:#a6a6a6;}.cls-2{fill-rule:evenodd;fill:url(#linear-gradient);}.cls-3{fill:none;}.cls-4{fill:#fff;}</style><linearGradient id="linear-gradient" x1="21.94" y1="982.35" x2="21.94" y2="954.87" gradientTransform="matrix(1, 0, 0, -1, 0, 990.45)" gradientUnits="userSpaceOnUse"><stop offset="0" stop-color="#f452ff"/><stop offset="1" stop-color="#832bc1"/></linearGradient></defs><g id="Layer_2" data-name="Layer 2"><g id="Layer_1-2" data-name="Layer 1"><g id="Apple"><path class="cls-1" d="M169.6,0H9.22l-1,0A13.59,13.59,0,0,0,6,.21,7.51,7.51,0,0,0,4,.89,7.06,7.06,0,0,0,2.18,2.18,7,7,0,0,0,.21,6,14.47,14.47,0,0,0,0,8.21c0,.34,0,.68,0,1V34.46c0,.34,0,.66,0,1a14.49,14.49,0,0,0,.19,2.19,7.25,7.25,0,0,0,.68,2.08,7,7,0,0,0,1.29,1.76A6.82,6.82,0,0,0,4,42.78,7.21,7.21,0,0,0,6,43.47a14.83,14.83,0,0,0,2.19.19H171.79a14.47,14.47,0,0,0,2.18-.19,7.38,7.38,0,0,0,2.08-.69,6.82,6.82,0,0,0,1.77-1.29,7,7,0,0,0,1.29-1.76,7.23,7.23,0,0,0,.67-2.08,14.5,14.5,0,0,0,.21-2.19v-1c0-.4,0-.79,0-1.2V10.41c0-.4,0-.79,0-1.19v-1A14.5,14.5,0,0,0,179.78,6,7.23,7.23,0,0,0,179.11,4a7.24,7.24,0,0,0-1.29-1.77A7.06,7.06,0,0,0,176.05.89,7.69,7.69,0,0,0,174,.21,13.28,13.28,0,0,0,171.79,0l-1,0Z"/><path d="M9.22,42.72h-1a13.87,13.87,0,0,1-2-.18,6.53,6.53,0,0,1-1.81-.6A6.2,6.2,0,0,1,1.74,39.3a6.63,6.63,0,0,1-.59-1.81A13.45,13.45,0,0,1,1,35.44c0-.23,0-1,0-1V9.22s0-.75,0-1a13.22,13.22,0,0,1,.18-2,6.59,6.59,0,0,1,.59-1.82A6,6,0,0,1,2.85,2.86,6.21,6.21,0,0,1,4.38,1.74a6.31,6.31,0,0,1,1.81-.59A13.34,13.34,0,0,1,8.24,1H171.77a13.1,13.1,0,0,1,2,.18,6.18,6.18,0,0,1,1.82.6,5.91,5.91,0,0,1,1.52,1.1,6.15,6.15,0,0,1,1.12,1.54,6.67,6.67,0,0,1,.59,1.8A14.58,14.58,0,0,1,179,8.25c0,.31,0,.64,0,1s0,.8,0,1.19V33.26c0,.4,0,.79,0,1.18s0,.68,0,1a14.29,14.29,0,0,1-.18,2,6.59,6.59,0,0,1-.59,1.82,6,6,0,0,1-1.11,1.51,5.8,5.8,0,0,1-1.53,1.12,6.28,6.28,0,0,1-1.82.6,13.64,13.64,0,0,1-2,.18H9.22Z"/><path class="cls-2" d="M35.14,31.91a5.86,5.86,0,0,1-1.76,2.31,5.64,5.64,0,0,1-1.93,1,11.68,11.68,0,0,1-3.32.35H15.76a11.64,11.64,0,0,1-3.32-.35,5.55,5.55,0,0,1-1.93-1,5.77,5.77,0,0,1-1.76-2.31A10.67,10.67,0,0,1,8.21,28h0V15.66h0a10.74,10.74,0,0,1,.54-3.9,5.83,5.83,0,0,1,1.76-2.31,5.72,5.72,0,0,1,1.93-1,12,12,0,0,1,3.32-.35H28.13a12.05,12.05,0,0,1,3.32.35,5.82,5.82,0,0,1,1.93,1,5.93,5.93,0,0,1,1.76,2.31,10.74,10.74,0,0,1,.54,3.9V28A10.67,10.67,0,0,1,35.14,31.91Z"/><path class="cls-3" d="M35.14,31.91a5.86,5.86,0,0,1-1.76,2.31,5.64,5.64,0,0,1-1.93,1,11.68,11.68,0,0,1-3.32.35H15.76a11.64,11.64,0,0,1-3.32-.35,5.55,5.55,0,0,1-1.93-1,5.77,5.77,0,0,1-1.76-2.31A10.67,10.67,0,0,1,8.21,28h0V15.66h0a10.74,10.74,0,0,1,.54-3.9,5.83,5.83,0,0,1,1.76-2.31,5.72,5.72,0,0,1,1.93-1,12,12,0,0,1,3.32-.35H28.13a12.05,12.05,0,0,1,3.32.35,5.82,5.82,0,0,1,1.93,1,5.93,5.93,0,0,1,1.76,2.31,10.74,10.74,0,0,1,.54,3.9V28A10.67,10.67,0,0,1,35.14,31.91Z"/><path class="cls-4" d="M23.94,23.89a2.79,2.79,0,0,0-2-.71,2.8,2.8,0,0,0-2,.71,1.32,1.32,0,0,0-.36.79,10.6,10.6,0,0,0,0,2.08c.08.84.21,2,.39,3.11a13.84,13.84,0,0,0,.32,1.57,1.56,1.56,0,0,0,1.61.95,1.55,1.55,0,0,0,1.6-.95,11.87,11.87,0,0,0,.32-1.57c.18-1.14.32-2.27.39-3.11a10.6,10.6,0,0,0,0-2.08A1.26,1.26,0,0,0,23.94,23.89ZM19.7,20A2.25,2.25,0,1,0,22,17.77,2.25,2.25,0,0,0,19.7,20Zm2.22-8.88a9.66,9.66,0,0,0-3.17,18.78.12.12,0,0,0,.17-.14c-.05-.33-.1-.66-.14-1a.34.34,0,0,0-.19-.26,8.42,8.42,0,1,1,6.72,0,.35.35,0,0,0-.2.26c0,.33-.09.66-.14,1a.13.13,0,0,0,.18.14,9.66,9.66,0,0,0-3.23-18.78Zm-.17,4.44a5.23,5.23,0,0,1,3.78,9,.39.39,0,0,0-.12.31,10.16,10.16,0,0,1,0,1.1.12.12,0,0,0,.19.12,6.47,6.47,0,1,0-7.28,0,.13.13,0,0,0,.2-.12,8.12,8.12,0,0,1,0-1.1.4.4,0,0,0-.13-.31,5.24,5.24,0,0,1,3.38-9Z"/><path class="cls-4" d="M50.47,30.38H45.3L44.06,34H41.87l4.9-13.56H49L53.94,34H51.71Zm-4.63-1.69h4.09l-2-6h0Z"/><path class="cls-4" d="M64.51,29.1c0,3.07-1.65,5-4.13,5a3.35,3.35,0,0,1-3.11-1.73h-.05v4.89h-2V24.16h2V25.8h0a3.49,3.49,0,0,1,3.14-1.75C62.85,24.05,64.51,26,64.51,29.1Zm-2.09,0c0-2-1-3.32-2.61-3.32s-2.59,1.35-2.59,3.32,1,3.33,2.59,3.33S62.42,31.12,62.42,29.1Z"/><path class="cls-4" d="M75.39,29.1c0,3.07-1.65,5-4.13,5a3.36,3.36,0,0,1-3.11-1.73H68.1v4.89h-2V24.16h2V25.8h0a3.49,3.49,0,0,1,3.14-1.75C73.73,24.05,75.39,26,75.39,29.1Zm-2.09,0c0-2-1-3.32-2.61-3.32S68.1,27.13,68.1,29.1s1,3.33,2.59,3.33S73.3,31.12,73.3,29.1Z"/><path class="cls-4" d="M77,20.48h2V34H77Z"/><path class="cls-4" d="M89.63,31.14c-.28,1.79-2,3-4.26,3-2.88,0-4.66-1.93-4.66-5S82.5,24,85.28,24s4.46,1.87,4.46,4.87v.7h-7v.12a2.57,2.57,0,0,0,2.66,2.8,2.24,2.24,0,0,0,2.28-1.39Zm-6.86-2.95h4.94a2.39,2.39,0,0,0-2.43-2.51A2.5,2.5,0,0,0,82.77,28.19Z"/><path class="cls-4" d="M100.55,20.48A4.26,4.26,0,0,1,105,24.94a4.3,4.3,0,0,1-4.53,4.47H97.57V34H95.46V20.48Zm-3,7.16H100c1.83,0,2.88-1,2.88-2.69s-1-2.69-2.87-2.69H97.57Z"/><path class="cls-4" d="M105.75,29.1c0-3.11,1.83-5.06,4.69-5.06s4.69,1.95,4.69,5.06-1.82,5.07-4.69,5.07S105.75,32.22,105.75,29.1Zm7.31,0c0-2.13-1-3.39-2.62-3.39s-2.62,1.27-2.62,3.39,1,3.39,2.62,3.39S113.06,31.24,113.06,29.1Z"/><path class="cls-4" d="M116.55,29.1c0-3.05,1.68-5.05,4.14-5.05a3.34,3.34,0,0,1,3.1,1.75h0V20.48h2V34h-2V32.36h0a3.36,3.36,0,0,1-3.14,1.79C118.23,34.15,116.55,32.15,116.55,29.1Zm2.08,0c0,2,1,3.33,2.61,3.33s2.6-1.32,2.6-3.33-1-3.32-2.6-3.32S118.63,27.09,118.63,29.1Z"/><path class="cls-4" d="M134.5,27.56a2.19,2.19,0,0,0-2.33-1.82c-1.56,0-2.59,1.3-2.59,3.36s1,3.37,2.61,3.37a2.13,2.13,0,0,0,2.31-1.77h1.95c-.22,2.07-1.88,3.47-4.28,3.47-2.82,0-4.66-1.93-4.66-5.07S129.35,24,132.15,24a4,4,0,0,1,4.29,3.52Z"/><path class="cls-4" d="M137.7,31.23c0-1.73,1.32-2.77,3.67-2.91l2.71-.15v-.75c0-1.1-.73-1.72-2-1.72a1.88,1.88,0,0,0-2.07,1.39h-1.9c0-1.79,1.72-3.05,4-3.05s3.92,1.28,3.92,3.23V34h-1.95V32.42h0A3.54,3.54,0,0,1,141,34.21,3,3,0,0,1,137.7,31.23Zm6.38-.89v-.76l-2.44.15c-1.21.08-1.89.6-1.89,1.45s.71,1.43,1.8,1.43A2.37,2.37,0,0,0,144.08,30.34Z"/><path class="cls-4" d="M151.76,24.05c2.19,0,3.76,1.21,3.81,2.95h-1.91c-.09-.87-.83-1.4-2-1.4s-1.83.5-1.83,1.27c0,.6.49,1,1.52,1.24l1.66.39c2,.48,2.74,1.21,2.74,2.66,0,1.78-1.69,3-4.1,3s-3.9-1.2-4.05-3h2c.14.95.9,1.45,2.13,1.45s2-.49,2-1.28c0-.61-.37-.94-1.41-1.21l-1.76-.43c-1.79-.43-2.69-1.34-2.69-2.71C147.89,25.24,149.46,24.05,151.76,24.05Z"/><path class="cls-4" d="M160.2,21.82v2.34h1.88v1.6H160.2v5.45c0,.85.38,1.25,1.2,1.25a5.77,5.77,0,0,0,.67-.05V34a6.08,6.08,0,0,1-1.13.09c-2,0-2.78-.75-2.78-2.67V25.76h-1.43v-1.6h1.43V21.82Z"/><path class="cls-4" d="M167.54,24.05c2.19,0,3.76,1.21,3.8,2.95h-1.9c-.09-.87-.83-1.4-2-1.4s-1.83.5-1.83,1.27c0,.6.49,1,1.51,1.24l1.67.39c2,.48,2.74,1.21,2.74,2.66,0,1.78-1.69,3-4.11,3s-3.9-1.2-4.05-3h2c.15.95.91,1.45,2.14,1.45s2-.49,2-1.28c0-.61-.38-.94-1.41-1.21l-1.77-.43c-1.78-.43-2.68-1.34-2.68-2.71C163.67,25.24,165.24,24.05,167.54,24.05Z"/><path class="cls-4" d="M46.9,16H42.84V9.49h1v5.59h3Z"/><path class="cls-4" d="M48.08,9.64a.6.6,0,0,1,.63-.6.6.6,0,1,1,0,1.19A.6.6,0,0,1,48.08,9.64Zm.14,1.45h1V16h-1Z"/><path class="cls-4" d="M52.55,11c1.11,0,1.83.51,1.92,1.38h-.92c-.1-.36-.45-.59-1-.59s-.95.25-.95.64.25.48.78.6l.82.19c.93.21,1.37.62,1.37,1.34,0,.92-.86,1.54-2,1.54s-1.93-.53-2-1.4h1a1,1,0,0,0,1.07.62c.6,0,1-.27,1-.67s-.23-.48-.72-.6l-.86-.2c-.93-.22-1.37-.64-1.37-1.37S51.44,11,52.55,11Z"/><path class="cls-4" d="M57.15,9.87v1.24h1.07v.82H57.15v2.53c0,.51.22.74.7.74l.37,0V16a4.24,4.24,0,0,1-.53,0c-1.08,0-1.51-.37-1.51-1.32V11.93H55.4v-.82h.78V9.87Z"/><path class="cls-4" d="M63.6,14.68a2,2,0,0,1-2.13,1.42,2.23,2.23,0,0,1-2.27-2.53A2.26,2.26,0,0,1,61.47,11c1.37,0,2.19.93,2.19,2.47v.34H60.19v.06a1.3,1.3,0,0,0,1.31,1.41,1.18,1.18,0,0,0,1.17-.6ZM60.19,13.1h2.48a1.19,1.19,0,0,0-1.21-1.28A1.26,1.26,0,0,0,60.19,13.1Z"/><path class="cls-4" d="M65,11.09h.94v.78H66A1.48,1.48,0,0,1,67.44,11a1.6,1.6,0,0,1,1.7,1.83V16h-1V13.07c0-.79-.34-1.18-1.06-1.18a1.12,1.12,0,0,0-1.17,1.24V16H65Z"/><path class="cls-4" d="M73.07,13.55a2.33,2.33,0,1,1,4.63,0,2.33,2.33,0,1,1-4.63,0Zm3.63,0c0-1.07-.47-1.69-1.31-1.69s-1.32.62-1.32,1.69.47,1.69,1.32,1.69S76.7,14.62,76.7,13.55Z"/><path class="cls-4" d="M79,11.09h.94v.78H80A1.48,1.48,0,0,1,81.48,11a1.6,1.6,0,0,1,1.7,1.83V16h-1V13.07c0-.79-.34-1.18-1.06-1.18A1.12,1.12,0,0,0,80,13.13V16H79Z"/></g></g></g></svg>