<svg xmlns="http://www.w3.org/2000/svg" viewBox="0 0 30 30"><defs><style>.cls-1{fill:#1f1f1f;fill-rule:evenodd;}.cls-2{fill:#ddd8ca;}</style></defs><g id="Layer_2" data-name="Layer 2"><g id="Layer_1-2" data-name="Layer 1"><path class="cls-1" d="M29.41,26a6.35,6.35,0,0,1-1.92,2.52,6.42,6.42,0,0,1-2.11,1.1,13.33,13.33,0,0,1-3.63.38H8.25a13.33,13.33,0,0,1-3.63-.38,6.42,6.42,0,0,1-2.11-1.1A6.35,6.35,0,0,1,.59,26,11.89,11.89,0,0,1,0,21.75H0V8.25H0A11.89,11.89,0,0,1,.59,4,6.35,6.35,0,0,1,2.51,1.48,6.42,6.42,0,0,1,4.62.38,13.33,13.33,0,0,1,8.25,0h13.5a13.33,13.33,0,0,1,3.63.38,6.42,6.42,0,0,1,2.11,1.1A6.35,6.35,0,0,1,29.41,4,11.89,11.89,0,0,1,30,8.25v13.5A11.89,11.89,0,0,1,29.41,26Z"/><path class="cls-2" d="M17.06,17.12A2.83,2.83,0,0,0,15,16.38a2.86,2.86,0,0,0-2.06.74,1.36,1.36,0,0,0-.38.82,10.63,10.63,0,0,0,0,2.15c.07.87.21,2,.4,3.22a13.34,13.34,0,0,0,.33,1.62,1.61,1.61,0,0,0,1.66,1,1.61,1.61,0,0,0,1.66-1A12.77,12.77,0,0,0,17,23.31c.18-1.18.32-2.35.39-3.22a10.63,10.63,0,0,0,.05-2.15A1.31,1.31,0,0,0,17.06,17.12Zm-4.38-4A2.33,2.33,0,1,0,15,10.79,2.32,2.32,0,0,0,12.68,13.11ZM15,3.93a10,10,0,0,0-3.29,19.44.14.14,0,0,0,.18-.15c0-.34-.1-.69-.14-1a.38.38,0,0,0-.21-.28,8.71,8.71,0,1,1,7,0,.34.34,0,0,0-.2.27c0,.33-.09.68-.14,1a.13.13,0,0,0,.17.15A10,10,0,0,0,15,3.93Zm-.19,4.59a5.42,5.42,0,0,1,3.93,9.36.47.47,0,0,0-.14.33,7.27,7.27,0,0,1,0,1.14.14.14,0,0,0,.21.12,6.7,6.7,0,1,0-7.54,0,.13.13,0,0,0,.2-.12,10.93,10.93,0,0,1,0-1.14.42.42,0,0,0-.13-.33,5.41,5.41,0,0,1,3.49-9.36Z"/></g></g></svg>