<svg xmlns="http://www.w3.org/2000/svg" viewBox="0 0 30 30"><defs><style>.cls-1{fill:#1f1f1f;fill-rule:evenodd;}.cls-2{fill:#ddd8ca;}</style></defs><g id="Layer_2" data-name="Layer 2"><g id="Layer_1-2" data-name="Layer 1"><path class="cls-1" d="M29.41,26a6.35,6.35,0,0,1-1.92,2.52,6.42,6.42,0,0,1-2.11,1.1,13.33,13.33,0,0,1-3.63.38H8.25a13.33,13.33,0,0,1-3.63-.38,6.42,6.42,0,0,1-2.11-1.1A6.35,6.35,0,0,1,.59,26,11.89,11.89,0,0,1,0,21.75H0V8.25H0A11.89,11.89,0,0,1,.59,4,6.35,6.35,0,0,1,2.51,1.48,6.42,6.42,0,0,1,4.62.38,13.33,13.33,0,0,1,8.25,0h13.5a13.33,13.33,0,0,1,3.63.38,6.42,6.42,0,0,1,2.11,1.1A6.35,6.35,0,0,1,29.41,4,11.89,11.89,0,0,1,30,8.25v13.5A11.89,11.89,0,0,1,29.41,26Z"/><g id="logo_podcasts_192px" data-name="logo podcasts 192px"><path id="Shape" class="cls-2" d="M7,13.23a1.15,1.15,0,0,0-1.15,1.15v1.24a1.15,1.15,0,1,0,2.3,0V14.38A1.15,1.15,0,0,0,7,13.23Z"/><path id="Shape-2" data-name="Shape" class="cls-2" d="M23,13.23a1.14,1.14,0,0,0-1.14,1.15v1.24a1.15,1.15,0,1,0,2.29,0V14.38A1.15,1.15,0,0,0,23,13.23Z"/><path id="Shape-3" data-name="Shape" class="cls-2" d="M10.94,17a1.14,1.14,0,0,0-1.15,1.14v1.25a1.15,1.15,0,1,0,2.29,0V18.12A1.14,1.14,0,0,0,10.94,17Z"/><path id="Shape-4" data-name="Shape" class="cls-2" d="M10.94,9.48a1.14,1.14,0,0,0-1.15,1.15v4.08h0a1.15,1.15,0,0,0,2.29,0h0V10.63A1.14,1.14,0,0,0,10.94,9.48Z"/><path id="Shape-5" data-name="Shape" class="cls-2" d="M19.06,9.48a1.14,1.14,0,0,0-1.14,1.15v1.25a1.15,1.15,0,0,0,2.29,0V10.63A1.14,1.14,0,0,0,19.06,9.48Z"/><path id="Shape-6" data-name="Shape" class="cls-2" d="M15,5.83A1.16,1.16,0,0,0,13.85,7V8.23a1.15,1.15,0,0,0,2.3,0V7A1.16,1.16,0,0,0,15,5.83Z"/><path id="Shape-7" data-name="Shape" class="cls-2" d="M15,20.62a1.16,1.16,0,0,0-1.15,1.15V23a1.15,1.15,0,0,0,2.3,0V21.77A1.16,1.16,0,0,0,15,20.62Z"/><path id="Shape-8" data-name="Shape" class="cls-2" d="M19.06,14.17a1.14,1.14,0,0,0-1.14,1.14v4.06a1.15,1.15,0,1,0,2.29,0V15.31A1.14,1.14,0,0,0,19.06,14.17Z"/><path id="Shape-9" data-name="Shape" class="cls-2" d="M16.15,11.67a1.15,1.15,0,1,0-2.3,0h0v6.66h0a1.15,1.15,0,0,0,2.3,0h0V11.67Z"/></g></g></g></svg>