<svg xmlns="http://www.w3.org/2000/svg" viewBox="0 0 180 43.67"><defs><style>.cls-1{fill:#a6a6a6;}.cls-2{fill:none;}.cls-3{fill:#0066d9;}.cls-4{fill:#4285f4;}.cls-5{fill:#ea4335;}.cls-6{fill:#34a853;}.cls-7{fill:#fab908;}.cls-8{fill:#fff;}</style></defs><g id="Layer_2" data-name="Layer 2"><g id="Layer_1-2" data-name="Layer 1"><g id="Google"><path class="cls-1" d="M169.6,0H9.22l-1,0A13.59,13.59,0,0,0,6,.21,7.51,7.51,0,0,0,4,.89,7.06,7.06,0,0,0,2.18,2.18,7,7,0,0,0,.21,6,14.47,14.47,0,0,0,0,8.21c0,.34,0,.68,0,1V34.46c0,.34,0,.66,0,1a14.49,14.49,0,0,0,.19,2.19,7.25,7.25,0,0,0,.68,2.08,7,7,0,0,0,1.29,1.76A6.82,6.82,0,0,0,4,42.78,7.21,7.21,0,0,0,6,43.47a14.83,14.83,0,0,0,2.19.19H171.79a14.47,14.47,0,0,0,2.18-.19,7.38,7.38,0,0,0,2.08-.69,6.82,6.82,0,0,0,1.77-1.29,7,7,0,0,0,1.29-1.76,7.23,7.23,0,0,0,.67-2.08,14.5,14.5,0,0,0,.21-2.19v-1c0-.4,0-.79,0-1.2V10.41c0-.4,0-.79,0-1.19v-1A14.5,14.5,0,0,0,179.78,6,7.23,7.23,0,0,0,179.11,4a7.24,7.24,0,0,0-1.29-1.77A7.06,7.06,0,0,0,176.05.89,7.69,7.69,0,0,0,174,.21,13.28,13.28,0,0,0,171.79,0l-1,0Z"/><path d="M9.22,42.72h-1a13.87,13.87,0,0,1-2-.18,6.53,6.53,0,0,1-1.81-.6A6.2,6.2,0,0,1,1.74,39.3a6.63,6.63,0,0,1-.59-1.81A13.45,13.45,0,0,1,1,35.44c0-.23,0-1,0-1V9.22s0-.75,0-1a13.22,13.22,0,0,1,.18-2,6.59,6.59,0,0,1,.59-1.82A6,6,0,0,1,2.85,2.86,6.21,6.21,0,0,1,4.38,1.74a6.31,6.31,0,0,1,1.81-.59A13.34,13.34,0,0,1,8.24,1H171.77a13.1,13.1,0,0,1,2,.18,6.18,6.18,0,0,1,1.82.6,5.91,5.91,0,0,1,1.52,1.1,6.15,6.15,0,0,1,1.12,1.54,6.67,6.67,0,0,1,.59,1.8A14.58,14.58,0,0,1,179,8.25c0,.31,0,.64,0,1s0,.8,0,1.19V33.26c0,.4,0,.79,0,1.18s0,.68,0,1a14.29,14.29,0,0,1-.18,2,6.59,6.59,0,0,1-.59,1.82,6,6,0,0,1-1.11,1.51,5.8,5.8,0,0,1-1.53,1.12,6.28,6.28,0,0,1-1.82.6,13.64,13.64,0,0,1-2,.18H9.22Z"/><g id="Podcast_icon_final" data-name="Podcast icon final"><g id="logo_podcasts_192px" data-name="logo podcasts 192px"><rect id="Rectangle-path" class="cls-2" x="9.51" y="6.67" width="31.5" height="31.5"/><path id="Shape" class="cls-3" d="M12.63,19.63a1.81,1.81,0,0,0-1.81,1.81v2a1.81,1.81,0,1,0,3.61,0v-2A1.81,1.81,0,0,0,12.63,19.63Z"/><path id="Shape-2" data-name="Shape" class="cls-4" d="M37.89,19.63a1.8,1.8,0,0,0-1.8,1.81v2a1.8,1.8,0,1,0,3.6,0v-2A1.8,1.8,0,0,0,37.89,19.63Z"/><path id="Shape-3" data-name="Shape" class="cls-5" d="M18.86,25.54a1.79,1.79,0,0,0-1.8,1.8v2a1.81,1.81,0,0,0,3.61,0v-2A1.8,1.8,0,0,0,18.86,25.54Z"/><path id="Shape-4" data-name="Shape" class="cls-5" d="M18.86,13.73a1.79,1.79,0,0,0-1.8,1.8V22h0a1.8,1.8,0,0,0,3.6,0h0V15.53A1.8,1.8,0,0,0,18.86,13.73Z"/><path id="Shape-5" data-name="Shape" class="cls-6" d="M31.66,13.73a1.8,1.8,0,0,0-1.81,1.8v2a1.81,1.81,0,0,0,3.61,0v-2A1.8,1.8,0,0,0,31.66,13.73Z"/><path id="Shape-6" data-name="Shape" class="cls-7" d="M25.26,8a1.81,1.81,0,0,0-1.81,1.81v2a1.81,1.81,0,0,0,3.61,0v-2A1.8,1.8,0,0,0,25.26,8Z"/><path id="Shape-7" data-name="Shape" class="cls-7" d="M25.26,31.28a1.81,1.81,0,0,0-1.81,1.8v2a1.81,1.81,0,1,0,3.61,0v-2A1.8,1.8,0,0,0,25.26,31.28Z"/><path id="Shape-8" data-name="Shape" class="cls-6" d="M31.66,21.11a1.81,1.81,0,0,0-1.81,1.8v6.4a1.81,1.81,0,0,0,3.61,0v-6.4A1.81,1.81,0,0,0,31.66,21.11Z"/><path id="Shape-9" data-name="Shape" class="cls-7" d="M27.06,17.17a1.81,1.81,0,0,0-3.61,0h0v10.5h0a1.81,1.81,0,0,0,3.61,0h0V17.17Z"/></g></g><g id="Group"><path id="Podcasts" class="cls-8" d="M106.73,33.57V28.8h2.57a3.76,3.76,0,0,0,1.81-.44,3.42,3.42,0,0,0,1.33-1.23,3.45,3.45,0,0,0,0-3.58,3.5,3.5,0,0,0-1.33-1.23,3.87,3.87,0,0,0-1.81-.44h-3.94V33.57Zm2.6-6.09h-2.6V23.2h2.6a2.2,2.2,0,0,1,1.15.31,2.38,2.38,0,0,1,.78.8,2.1,2.1,0,0,1,0,2.06,2.3,2.3,0,0,1-.78.8,2.11,2.11,0,0,1-1.15.31Zm8.2,6.35a4.13,4.13,0,0,0,3.73-2.18,4.84,4.84,0,0,0,0-4.48,4.13,4.13,0,0,0-1.53-1.6,4.42,4.42,0,0,0-4.41,0,4.1,4.1,0,0,0-1.52,1.6,4.84,4.84,0,0,0,0,4.48,4.17,4.17,0,0,0,1.52,1.6A4.24,4.24,0,0,0,117.53,33.83Zm0-1.25a2.83,2.83,0,0,1-1.44-.39,2.77,2.77,0,0,1-1.07-1.1,3.73,3.73,0,0,1,0-3.36,2.86,2.86,0,0,1,1.07-1.11,2.92,2.92,0,0,1,1.44-.38,2.86,2.86,0,0,1,1.43.38A2.91,2.91,0,0,1,120,27.73a3.73,3.73,0,0,1,0,3.36,2.81,2.81,0,0,1-1.06,1.1A2.77,2.77,0,0,1,117.53,32.58Zm9.19,1.25a3.38,3.38,0,0,0,1.72-.43,3.23,3.23,0,0,0,1.14-1h.07v1.22H131V21.88h-1.39v3.45l.07,1.15h-.07a3.19,3.19,0,0,0-1.14-1.07,3.48,3.48,0,0,0-1.72-.43,3.74,3.74,0,0,0-2,.57,3.92,3.92,0,0,0-1.42,1.59,5.15,5.15,0,0,0,0,4.55,3.93,3.93,0,0,0,1.42,1.57A3.74,3.74,0,0,0,126.72,33.83Zm.17-1.25a2.48,2.48,0,0,1-1.36-.4,2.81,2.81,0,0,1-1-1.11,3.82,3.82,0,0,1,0-3.32,2.84,2.84,0,0,1,1-1.12,2.57,2.57,0,0,1,2.72,0,2.79,2.79,0,0,1,1,1.11,3.46,3.46,0,0,1,.39,1.67,3.42,3.42,0,0,1-.39,1.66,2.79,2.79,0,0,1-1,1.11A2.46,2.46,0,0,1,126.89,32.58Zm9.6,1.25a4,4,0,0,0,2.28-.63,3.69,3.69,0,0,0,1.36-1.67h0L138.89,31a2.43,2.43,0,0,1-.95,1.16,2.76,2.76,0,0,1-1.52.41,2.6,2.6,0,0,1-1.37-.4,3,3,0,0,1-1-1.12,3.77,3.77,0,0,1,0-3.3,3,3,0,0,1,1-1.12,2.51,2.51,0,0,1,1.37-.4,2.62,2.62,0,0,1,1.48.4,2.41,2.41,0,0,1,.92,1.17h0l1.26-.53a3.48,3.48,0,0,0-1.31-1.67,4,4,0,0,0-2.28-.63,4.16,4.16,0,0,0-2.17.57,3.92,3.92,0,0,0-1.51,1.59,5,5,0,0,0,0,4.53,4,4,0,0,0,1.51,1.58A4.07,4.07,0,0,0,136.49,33.83Zm7.49,0a3.16,3.16,0,0,0,1.62-.42,3,3,0,0,0,1.08-1h.06v1.19h1.33V28.3a3.16,3.16,0,0,0-1-2.43,3.84,3.84,0,0,0-2.68-.89,4.15,4.15,0,0,0-1.9.43,3.35,3.35,0,0,0-1.35,1.17h0l1.05.79a2.36,2.36,0,0,1,.93-.84,2.67,2.67,0,0,1,1.29-.31,2.4,2.4,0,0,1,1.65.57,1.84,1.84,0,0,1,.65,1.49h0v.51a3.5,3.5,0,0,0-1-.38,5.66,5.66,0,0,0-1.4-.16,4.16,4.16,0,0,0-2.52.74,2.45,2.45,0,0,0-1,2.07,2.58,2.58,0,0,0,1.5,2.41A3.59,3.59,0,0,0,144,33.83Zm.13-1.22a2,2,0,0,1-1.32-.43,1.35,1.35,0,0,1-.52-1.11,1.48,1.48,0,0,1,.58-1.22,2.65,2.65,0,0,1,1.72-.47,4.32,4.32,0,0,1,1.21.16,3.56,3.56,0,0,1,1,.42,2.58,2.58,0,0,1-.36,1.33,2.68,2.68,0,0,1-1,1A2.51,2.51,0,0,1,144.11,32.61Zm8.48,1.22a4.28,4.28,0,0,0,1.67-.31,2.76,2.76,0,0,0,1.19-.89,2.16,2.16,0,0,0,.44-1.34,2,2,0,0,0-.62-1.5,4,4,0,0,0-1.85-.92h0l-1.21-.31a2.9,2.9,0,0,1-1.07-.47.9.9,0,0,1-.36-.74.93.93,0,0,1,.51-.81,2.29,2.29,0,0,1,1.2-.32,2,2,0,0,1,2,1.11h0l1.21-.55a2.65,2.65,0,0,0-1.22-1.32,3.91,3.91,0,0,0-2-.48,4,4,0,0,0-1.55.3,2.61,2.61,0,0,0-1.15.84,2,2,0,0,0-.44,1.26A2,2,0,0,0,150,28.9a3.61,3.61,0,0,0,1.63.83h0l1,.27a4,4,0,0,1,1.38.54,1,1,0,0,1-.11,1.75,2.68,2.68,0,0,1-1.34.32,2.41,2.41,0,0,1-1.35-.41,2.49,2.49,0,0,1-.92-1.16h0l-1.24.56a3.36,3.36,0,0,0,1.27,1.6A3.82,3.82,0,0,0,152.59,33.83Zm7.71-.13a2.85,2.85,0,0,0,.64-.05,1.82,1.82,0,0,0,.5-.16h0V32.14a1.72,1.72,0,0,1-.91.27,1.13,1.13,0,0,1-.9-.36,1.61,1.61,0,0,1-.26-1h0V26.5h2V25.24h-2V22.89H158v2.35h-1.45V26.5H158v4.88a2.65,2.65,0,0,0,.16,1,2.19,2.19,0,0,0,.49.72,2.29,2.29,0,0,0,.73.44A2.61,2.61,0,0,0,160.3,33.7Zm5.62.13a4.23,4.23,0,0,0,1.66-.31,2.7,2.7,0,0,0,1.19-.89,2.11,2.11,0,0,0,.45-1.34,2,2,0,0,0-.62-1.5,4,4,0,0,0-1.85-.92h0l-1.21-.31a2.88,2.88,0,0,1-1.08-.47.9.9,0,0,1-.36-.74.94.94,0,0,1,.52-.81,2.24,2.24,0,0,1,1.2-.32,2,2,0,0,1,2,1.11h0l1.21-.55a2.63,2.63,0,0,0-1.21-1.32,3.94,3.94,0,0,0-1.95-.48,4,4,0,0,0-1.56.3,2.67,2.67,0,0,0-1.15.84,2.1,2.1,0,0,0,.21,2.78,3.61,3.61,0,0,0,1.63.83h0l1,.27a4.08,4.08,0,0,1,1.39.54,1,1,0,0,1,.44.84,1,1,0,0,1-.55.91,2.68,2.68,0,0,1-1.34.32A2.42,2.42,0,0,1,163.65,31h0l-1.24.56a3.36,3.36,0,0,0,1.27,1.6A3.8,3.8,0,0,0,165.92,33.83Z"/><path id="Combined-Shape" class="cls-8" d="M84.89,25.12a3,3,0,0,1,2.26,1h.07v-.69H89V33.1c0,3.17-1.87,4.47-4.08,4.47A4.1,4.1,0,0,1,81.13,35l1.64-.69a2.35,2.35,0,0,0,2.16,1.52,2.19,2.19,0,0,0,2.29-2.51v-.62h-.07a2.92,2.92,0,0,1-2.26,1,4.3,4.3,0,0,1,0-8.59Zm-18.61.13A4.29,4.29,0,1,1,62,29.54,4.22,4.22,0,0,1,66.28,25.25Zm9.4,0a4.29,4.29,0,1,1-4.3,4.29A4.22,4.22,0,0,1,75.68,25.25Zm21.47,0A4,4,0,0,1,100.82,28l.19.48-5.74,2.37a2.18,2.18,0,0,0,2.08,1.3A2.46,2.46,0,0,0,99.47,31l1.46,1a4.28,4.28,0,0,1-3.58,1.9,4.19,4.19,0,0,1-4.25-4.29A4.08,4.08,0,0,1,97.15,25.25Zm-42-4.83a6.36,6.36,0,0,1,4.57,1.84l-1.3,1.28a4.61,4.61,0,0,0-3.27-1.3,4.84,4.84,0,0,0,0,9.67,4.42,4.42,0,0,0,3.36-1.33,3.75,3.75,0,0,0,1-2.29H55.16V26.48h6.13a5.56,5.56,0,0,1,.1,1.14,6,6,0,0,1-1.57,4.26,6.13,6.13,0,0,1-4.66,1.86,6.66,6.66,0,1,1,0-13.32Zm37,.51V33.54H90.3V20.93Zm-25.9,6a2.61,2.61,0,1,0,2.43,2.61A2.48,2.48,0,0,0,66.28,26.92Zm9.4,0a2.61,2.61,0,1,0,2.43,2.61A2.47,2.47,0,0,0,75.68,26.92Zm9.38-.11a2.61,2.61,0,0,0,0,5.21,2.38,2.38,0,0,0,2.28-2.6A2.41,2.41,0,0,0,85.06,26.81Zm12.15.09A2.36,2.36,0,0,0,95,29.4l3.84-1.59A1.64,1.64,0,0,0,97.21,26.9Z"/></g><path id="Listenon" class="cls-8" d="M54.05,16.24v-.9h-4V7.88H49v8.36Zm2-7.26a.61.61,0,0,0,.47-.17.6.6,0,0,0,.16-.43.63.63,0,0,0-.16-.44.58.58,0,0,0-.47-.18.61.61,0,0,0-.47.18.67.67,0,0,0-.15.44.56.56,0,0,0,.62.6Zm.52,7.26V10H55.52v6.21Zm4.28.11a2.75,2.75,0,0,0,1.73-.5,1.57,1.57,0,0,0,.67-1.33,1.44,1.44,0,0,0-.24-.85,2,2,0,0,0-.73-.6A6.1,6.1,0,0,0,61,12.65a3.78,3.78,0,0,1-1.1-.37.66.66,0,0,1-.31-.58.77.77,0,0,1,.33-.66,1.45,1.45,0,0,1,.91-.26,1.4,1.4,0,0,1,.93.32,1,1,0,0,1,.37.75H63.2a1.71,1.71,0,0,0-.66-1.39,2.56,2.56,0,0,0-1.71-.55,2.53,2.53,0,0,0-1.65.53,1.61,1.61,0,0,0-.65,1.29,1.36,1.36,0,0,0,.23.79,1.72,1.72,0,0,0,.7.58,5.07,5.07,0,0,0,1.28.41,3.21,3.21,0,0,1,1.13.41.77.77,0,0,1,.32.67.75.75,0,0,1-.36.65,1.74,1.74,0,0,1-1,.25,1.66,1.66,0,0,1-1-.32,1.09,1.09,0,0,1-.43-.84H58.32a1.81,1.81,0,0,0,.32,1,2.2,2.2,0,0,0,.9.74A3.27,3.27,0,0,0,60.86,16.35Zm5.89,0a3.35,3.35,0,0,0,.81-.11h0v-.86a3.07,3.07,0,0,1-.5.07.67.67,0,0,1-.53-.19.89.89,0,0,1-.15-.56h0V10.85h1.16V10H66.38V8.52H65.31V10H64.18v.82h1.13V14.7a1.78,1.78,0,0,0,.37,1.22A1.3,1.3,0,0,0,66.75,16.35Zm4.9,0A2.61,2.61,0,0,0,74,15.15h0l-.65-.5a2.47,2.47,0,0,1-.68.61,1.89,1.89,0,0,1-1,.23,1.68,1.68,0,0,1-1.3-.57,2.25,2.25,0,0,1-.54-1.48h4.21V13a3.43,3.43,0,0,0-.67-2.28,2.34,2.34,0,0,0-1.88-.8,2.51,2.51,0,0,0-1.38.41,2.83,2.83,0,0,0-1,1.14,3.77,3.77,0,0,0-.35,1.65h0v.19a3.06,3.06,0,0,0,.79,2.22A2.71,2.71,0,0,0,71.65,16.35ZM73,12.56H69.9a2.28,2.28,0,0,1,.54-1.31,1.42,1.42,0,0,1,1.08-.47,1.32,1.32,0,0,1,1,.45A2,2,0,0,1,73,12.48h0Zm3.65,3.68V11.81a1.76,1.76,0,0,1,.6-.72,1.51,1.51,0,0,1,.91-.28,1.24,1.24,0,0,1,.94.32,1.49,1.49,0,0,1,.31,1h0v4.11h1.06V12.13c0-1.48-.67-2.22-2-2.22a2.27,2.27,0,0,0-1.86.9h0l0-.78h-1v6.21Zm11.47.11a2.66,2.66,0,0,0,2.48-1.52A3.71,3.71,0,0,0,91,13.2h0v-.07a3.38,3.38,0,0,0-.78-2.34,2.61,2.61,0,0,0-2-.88,2.66,2.66,0,0,0-2.46,1.52,3.69,3.69,0,0,0-.36,1.64h0v.08a3.36,3.36,0,0,0,.78,2.32A2.61,2.61,0,0,0,88.13,16.35Zm0-.86a1.52,1.52,0,0,1-1.28-.63,2.66,2.66,0,0,1-.48-1.66,2.89,2.89,0,0,1,.48-1.79,1.51,1.51,0,0,1,1.27-.63,1.55,1.55,0,0,1,1.29.64,2.65,2.65,0,0,1,.48,1.65,3,3,0,0,1-.47,1.78A1.55,1.55,0,0,1,88.13,15.49Zm5.51.75V11.81a1.87,1.87,0,0,1,.61-.72,1.49,1.49,0,0,1,.91-.28,1.26,1.26,0,0,1,.94.32,1.44,1.44,0,0,1,.3,1h0v4.11h1.07V12.13c0-1.48-.68-2.22-2-2.22a2.25,2.25,0,0,0-1.86.9h0l0-.78h-1v6.21Z"/></g></g></g></svg>