<svg xmlns="http://www.w3.org/2000/svg" viewBox="0 0 180 43.67"><defs><style>.cls-1{fill:#a6a6a6;}.cls-2{fill:#1ed760;}.cls-2,.cls-3{fill-rule:evenodd;}.cls-3{fill:#fff;}</style></defs><g id="Layer_2" data-name="Layer 2"><g id="Layer_1-2" data-name="Layer 1"><g id="Spotify"><path class="cls-1" d="M169.6,0H9.22l-1,0A13.59,13.59,0,0,0,6,.21,7.51,7.51,0,0,0,4,.89,7.06,7.06,0,0,0,2.18,2.18,7,7,0,0,0,.21,6,14.47,14.47,0,0,0,0,8.21c0,.34,0,.68,0,1V34.46c0,.34,0,.66,0,1a14.49,14.49,0,0,0,.19,2.19,7.25,7.25,0,0,0,.68,2.08,7,7,0,0,0,1.29,1.76A6.82,6.82,0,0,0,4,42.78,7.21,7.21,0,0,0,6,43.47a14.83,14.83,0,0,0,2.19.19H171.79a14.47,14.47,0,0,0,2.18-.19,7.38,7.38,0,0,0,2.08-.69,6.82,6.82,0,0,0,1.77-1.29,7,7,0,0,0,1.29-1.76,7.23,7.23,0,0,0,.67-2.08,14.5,14.5,0,0,0,.21-2.19v-1c0-.4,0-.79,0-1.2V10.41c0-.4,0-.79,0-1.19v-1A14.5,14.5,0,0,0,179.78,6,7.23,7.23,0,0,0,179.11,4a7.24,7.24,0,0,0-1.29-1.77A7.06,7.06,0,0,0,176.05.89,7.69,7.69,0,0,0,174,.21,13.28,13.28,0,0,0,171.79,0l-1,0Z"/><path d="M9.22,42.72h-1a15.39,15.39,0,0,1-2-.18,6.53,6.53,0,0,1-1.81-.6A6.2,6.2,0,0,1,1.74,39.3a6.63,6.63,0,0,1-.59-1.81A13.45,13.45,0,0,1,1,35.44c0-.23,0-1,0-1V9.22s0-.76,0-1a13.22,13.22,0,0,1,.18-2,6.59,6.59,0,0,1,.59-1.82A6.15,6.15,0,0,1,4.38,1.74a6.31,6.31,0,0,1,1.81-.59A13.34,13.34,0,0,1,8.24,1l1,0H170.77l1,0a13.1,13.1,0,0,1,2,.18,6.47,6.47,0,0,1,1.82.59,6.11,6.11,0,0,1,2.64,2.65,6.56,6.56,0,0,1,.59,1.8A14.58,14.58,0,0,1,179,8.25c0,.31,0,.64,0,1s0,.8,0,1.19V33.26c0,.4,0,.79,0,1.18s0,.68,0,1a14.16,14.16,0,0,1-.18,2,6.66,6.66,0,0,1-.59,1.83,6,6,0,0,1-1.11,1.51,5.8,5.8,0,0,1-1.53,1.12,6.28,6.28,0,0,1-1.82.6,15.1,15.1,0,0,1-2,.18H9.22Z"/><path id="Combined-Shape" class="cls-2" d="M97.52,20.37A1.19,1.19,0,0,0,99.16,20a1.21,1.21,0,0,0-.42-1.65C94,15.46,86.45,15.19,81.92,16.57a1.22,1.22,0,0,0-.8,1.51,1.19,1.19,0,0,0,1.5.8C86.56,17.68,93.38,17.9,97.52,20.37ZM97.38,24a1,1,0,0,0-.33-1.38,18.62,18.62,0,0,0-14.41-1.72A1,1,0,0,0,82,22.19a1,1,0,0,0,1.24.67A16.72,16.72,0,0,1,96,24.36,1,1,0,0,0,97.38,24Zm-1.57,3.51a.8.8,0,0,0-.26-1.1C92.17,24.36,88,23.88,83.09,25a.8.8,0,0,0,.35,1.57c4.47-1,8.26-.61,11.27,1.24A.8.8,0,0,0,95.81,27.54ZM89.93,8.94A12.9,12.9,0,1,1,77.1,21.84,12.86,12.86,0,0,1,89.93,8.94ZM112,20.85c2.69.66,3.8,1.68,3.8,3.53,0,2.19-1.67,3.61-4.25,3.61a7.21,7.21,0,0,1-4.88-1.88.15.15,0,0,1,0-.21l1.21-1.45a.14.14,0,0,1,.1-.05.15.15,0,0,1,.11,0,5.09,5.09,0,0,0,3.52,1.46c1.17,0,1.89-.51,1.89-1.32s-.36-1.15-2.48-1.64c-2.49-.6-3.93-1.39-3.93-3.6,0-2.06,1.67-3.51,4.06-3.51a6.58,6.58,0,0,1,4.26,1.48.14.14,0,0,1,0,.2l-1.08,1.54a.15.15,0,0,1-.09.06.2.2,0,0,1-.11,0,5,5,0,0,0-3-1.16c-1,0-1.72.5-1.72,1.24S109.78,20.32,112,20.85Zm11.49,2.48a2.43,2.43,0,0,0-2.32-2.66,2.47,2.47,0,0,0-2.38,2.66A2.47,2.47,0,0,0,121.17,26,2.39,2.39,0,0,0,123.49,23.33Zm-1.87-4.68c2.08,0,4.18,1.61,4.18,4.68S123.7,28,121.62,28a3.54,3.54,0,0,1-2.78-1.26v3.57a.15.15,0,0,1-.15.15h-2a.15.15,0,0,1-.15-.15V19a.15.15,0,0,1,.15-.15h2a.15.15,0,0,1,.15.15v1A3.44,3.44,0,0,1,121.62,18.65ZM131.18,26a2.48,2.48,0,0,0,2.48-2.64,2.54,2.54,0,0,0-2.51-2.67,2.47,2.47,0,0,0-2.46,2.64A2.53,2.53,0,0,0,131.18,26Zm0-7.35a4.69,4.69,0,1,1-4.76,4.71A4.66,4.66,0,0,1,131.18,18.65Zm10.46.18a.15.15,0,0,1,.14.15v1.71a.15.15,0,0,1-.14.15h-2.18V25c0,.65.28.94.92.94a2.51,2.51,0,0,0,1.16-.28.14.14,0,0,1,.14,0,.12.12,0,0,1,.07.12v1.63a.17.17,0,0,1-.07.13,3.69,3.69,0,0,1-1.86.46c-1.75,0-2.63-.91-2.63-2.7V20.84h-1a.15.15,0,0,1-.14-.15V19a.15.15,0,0,1,.14-.15h1V16.59a.15.15,0,0,1,.14-.15h2a.15.15,0,0,1,.15.15v2.24Zm7.6,0h3.39a.14.14,0,0,1,.13.1L155.08,25l2.12-6.07a.14.14,0,0,1,.13-.1h2.07a.2.2,0,0,1,.12.06.17.17,0,0,1,0,.14L156.09,28c-.71,1.84-1.52,2.53-3,2.53A4.06,4.06,0,0,1,151,30a.14.14,0,0,1-.07-.18l.68-1.49a.15.15,0,0,1,.08-.08.17.17,0,0,1,.12,0,2.32,2.32,0,0,0,1.09.31c.43,0,.75-.15,1.07-.86l-2.83-6.84h-1.86v6.84a.14.14,0,0,1-.14.14h-2a.15.15,0,0,1-.15-.14V20.84h-.95a.15.15,0,0,1-.15-.15V19a.15.15,0,0,1,.15-.15H147V18.4c0-2,1-3,2.8-3a5.34,5.34,0,0,1,1.65.24.15.15,0,0,1,.1.14v1.68a.14.14,0,0,1-.06.12.12.12,0,0,1-.13,0,3.43,3.43,0,0,0-1.12-.21c-.69,0-1,.37-1,1.18Zm-4.41,0A.15.15,0,0,1,145,19v8.7a.15.15,0,0,1-.15.14h-2a.14.14,0,0,1-.14-.14V19a.15.15,0,0,1,.14-.15Zm-1-4a1.43,1.43,0,1,1-1.42,1.43A1.43,1.43,0,0,1,143.85,14.87Zm17.46,4.83h-.37v.46h.37c.18,0,.28-.09.28-.23S161.49,19.7,161.31,19.7Zm.23.66.4.56h-.34l-.35-.51h-.31v.51h-.28V19.45h.66c.34,0,.56.17.56.47A.43.43,0,0,1,161.54,20.36Zm-.31-1.4A1.25,1.25,0,0,0,160,20.23a1.23,1.23,0,0,0,1.24,1.26,1.27,1.27,0,0,0,0-2.53Zm0,2.67a1.39,1.39,0,0,1-1.39-1.4,1.41,1.41,0,0,1,1.4-1.41,1.39,1.39,0,0,1,1.4,1.4A1.41,1.41,0,0,1,161.22,21.63Z"/><path id="LISTEN-ON" class="cls-3" d="M21,25H16.74V18.41H18v5.38H21ZM24,25h-1.3V18.41H24Zm6.84-5-1.15.35a1.14,1.14,0,0,0-1.21-.93.93.93,0,0,0-1,.84c0,.36.23.65.72.74l.92.18A2,2,0,0,1,31,23.12a2.17,2.17,0,0,1-2.39,2A2.4,2.4,0,0,1,26,23.09l1.19-.31A1.33,1.33,0,0,0,28.6,24c.69,0,1.07-.35,1.07-.81s-.29-.69-.8-.79l-.93-.18a1.93,1.93,0,0,1-1.73-1.9,2.19,2.19,0,0,1,2.3-2.07A2.17,2.17,0,0,1,30.88,20Zm7-.36H35.76V25H34.47V19.63H32.38V18.41h5.47ZM43.76,25H39.62V18.41h4.14v1.21H40.9v1.51h2.59v1.15H40.9v1.53h2.86Zm7.73,0H50.14l-3-4.69V25H45.85V18.41h1.6l2.76,4.38V18.41h1.28Zm6.25-3.31a2.07,2.07,0,1,0,4.13,0,2.07,2.07,0,1,0-4.13,0Zm-1.34,0a3.4,3.4,0,1,1,6.8,0,3.4,3.4,0,1,1-6.8,0ZM70.85,25H69.49l-3-4.69V25H65.2V18.41h1.61l2.75,4.38V18.41h1.29Z"/></g></g></g></svg>